<svg id="图层_1" data-name="图层 1" xmlns="http://www.w3.org/2000/svg" xmlns:xlink="http://www.w3.org/1999/xlink" viewBox="0 0 159.51 68.54"><defs><style>.cls-1{fill:url(#未命名的渐变_2);}.cls-2{fill:url(#未命名的渐变_4);}.cls-3{fill:none;}.cls-4{clip-path:url(#clip-path);}.cls-5{clip-path:url(#clip-path-3);}.cls-6{mask:url(#mask);}.cls-7{fill:url(#未命名的渐变_11);}.cls-8{clip-path:url(#clip-path-4);}.cls-9{mask:url(#mask-2);}.cls-10{fill:url(#未命名的渐变_3);}.cls-11{font-size:15px;font-family:CabinSketch-Regular, Cabin Sketch;}.cls-11,.cls-14{fill:#6bcff5;}.cls-12{letter-spacing:-0.01em;}.cls-13{letter-spacing:0em;}.cls-14{font-size:6px;stroke:#6bcff5;stroke-miterlimit:10;stroke-width:0.15px;font-family:KaiTi;letter-spacing:1em;}</style><linearGradient id="未命名的渐变_2" x1="-0.25" y1="-0.4" x2="-0.09" y2="-0.4" gradientTransform="matrix(216.03, 0, 0, -216.03, 67.99, -67.01)" gradientUnits="userSpaceOnUse"><stop offset="0" stop-color="#9c9c9c"/><stop offset="1" stop-color="#fff"/></linearGradient><linearGradient id="未命名的渐变_4" x1="-1.31" y1="-0.46" x2="-1.15" y2="-0.46" gradientTransform="matrix(68.91, 0, 0, -68.91, 111.36, -4.03)" gradientUnits="userSpaceOnUse"><stop offset="0" stop-color="#9c9c9c"/><stop offset="0.17" stop-color="#a3a3a3"/><stop offset="0.4" stop-color="#b5b5b5"/><stop offset="0.68" stop-color="#d3d3d3"/><stop offset="0.98" stop-color="#fcfcfc"/><stop offset="1" stop-color="#fff"/></linearGradient><clipPath id="clip-path" transform="translate(-0.37 14.28)"><rect class="cls-3" x="13" y="-1" width="42" height="42"/></clipPath><clipPath id="clip-path-3" transform="translate(-0.37 14.28)"><path class="cls-3" d="M27.69,2.61c.08,1.66-.07,10.21-11,18.06a.29.29,0,0,0-.13.24l0,5.7a.3.3,0,0,0,.21.29l.27.09h0c.07,0,.37,0,.35-.34a.17.17,0,0,0-.16-.15.17.17,0,0,1-.17-.2c.26-1.2,3.2-8.52,13.84-8.08a6.39,6.39,0,0,1,4.19,2,8.4,8.4,0,0,1,.58,9.18,7.61,7.61,0,0,1-1.31,1.65c-3.29,3.16-8.85,4.6-12,5.22a.3.3,0,0,0,0,.58,9.53,9.53,0,0,0,2.65.57,12.66,12.66,0,0,0,1.28-.06,12,12,0,0,0,1.24-.16,16.42,16.42,0,0,0,2.79-.82,23.89,23.89,0,0,0,7.3-4.19h0c2.27-2.49,3.87-5.4,4.13-7.09a10.56,10.56,0,0,0,0-4.15,9.73,9.73,0,0,0-2.36-4.52.31.31,0,0,1,.05-.46c1.22-.78,5.76-3.4,7.73-.73a.3.3,0,0,0,.55-.18,1.44,1.44,0,0,0-.22-.74,5.47,5.47,0,0,0-1.67-1.44.22.22,0,0,1,0-.38c.82-.44,3-1.33,4.27.49a7.05,7.05,0,0,1,1.49,3,.3.3,0,0,0,.33.26.33.33,0,0,0,.33-.35c0-.49-2-4.91-2.65-5.07a4.41,4.41,0,0,0-2.79.35c-1.71.67-6.19,2.95-7.86,3.81a.3.3,0,0,1-.43-.36,14.83,14.83,0,0,1,1-2.35A5.1,5.1,0,0,1,41.57,10a3.39,3.39,0,0,1,.8-.33h0a5.88,5.88,0,0,1,1.7.05,6.05,6.05,0,0,1,2.12.82l0,0c.09.08.2.15.27.12s0-.83-.21-1.2c-.47-.76-1.74-.71-2.79-.66-.79,0-1.45.08-1.56-.22s.74-1.13,1.46-1.49a5.08,5.08,0,0,1,2.63-.34,9.74,9.74,0,0,1,3.15.53,9.19,9.19,0,0,1,2.91,1.73.31.31,0,0,0,.41,0,.57.57,0,0,0,.19-.42.59.59,0,0,0-.26-.38,12,12,0,0,0-9.73-2.43.34.34,0,0,0-.2.13A59.43,59.43,0,0,0,37.39,15a.31.31,0,0,1-.43.16c-.85-.44-3.83-1.25-12.27,1.63a.3.3,0,0,1-.28-.53c2-1.46,4.87-3.9,5.6-6.12a7.62,7.62,0,0,0,.47-3.26,7,7,0,0,0-.09-.7,14.07,14.07,0,0,0-2.57-3.65.09.09,0,0,0-.06,0s-.08,0-.07.07"/></clipPath><mask id="mask" x="0" y="0" width="68.62" height="68.54" maskUnits="userSpaceOnUse"><g transform="translate(-0.37 14.28)"><rect class="cls-1" x="9.92" y="-4.61" width="49.52" height="49.2" transform="translate(-5.24 23) rotate(-34.27)"/></g></mask><linearGradient id="未命名的渐变_11" x1="-0.25" y1="-0.4" x2="-0.09" y2="-0.4" gradientTransform="matrix(216.03, 0, 0, -216.03, 67.99, -67.01)" gradientUnits="userSpaceOnUse"><stop offset="0" stop-color="#1eaeff"/><stop offset="1" stop-color="#09f175"/></linearGradient><clipPath id="clip-path-4" transform="translate(-0.37 14.28)"><path class="cls-3" d="M27.52,20.06l-5,8.69,0,0-.16.34a.45.45,0,0,0,0,.2c0,.18.07.49.41.33L28,26.94a.44.44,0,0,1,.49,0,.25.25,0,0,1,.08.3c-.12.35-4.29,7.52-4.29,7.52s.06.49.48-.06c.3-.39,3.53-4.42,5.38-6.84a17.65,17.65,0,0,0,1.25-1.83s.29-.73-.76-.72c-.86,0-3.78,1.21-5.14,1.79a.29.29,0,0,1-.38-.41c.64-1.17,2.63-6.28,2.65-6.31.11-.22,0-.46-.09-.46a.22.22,0,0,0-.15.09"/></clipPath><mask id="mask-2" x="14.33" y="29.6" width="24.56" height="24.63" maskUnits="userSpaceOnUse"><g transform="translate(-0.37 14.28)"><rect class="cls-2" x="18.1" y="19.07" width="17.76" height="17.13" transform="translate(-11.56 30.1) rotate(-49.35)"/></g></mask><linearGradient id="未命名的渐变_3" x1="-1.31" y1="-0.46" x2="-1.15" y2="-0.46" gradientTransform="matrix(68.91, 0, 0, -68.91, 111.36, -4.03)" gradientUnits="userSpaceOnUse"><stop offset="0" stop-color="#fff"/><stop offset="0.09" stop-color="#fffef8"/><stop offset="0.22" stop-color="#fffbe6"/><stop offset="0.36" stop-color="#fff7c8"/><stop offset="0.53" stop-color="#fff19e"/><stop offset="0.71" stop-color="#ffe968"/><stop offset="0.89" stop-color="#ffe028"/><stop offset="1" stop-color="#ffda00"/></linearGradient></defs><title>log</title><g class="cls-4"><g class="cls-4"><g class="cls-5"><g class="cls-6"><rect class="cls-7" x="9.92" y="-4.61" width="49.52" height="49.2" transform="translate(-5.6 37.28) rotate(-34.27)"/></g></g><g class="cls-8"><g class="cls-9"><rect class="cls-10" x="18.1" y="19.07" width="17.76" height="17.13" transform="translate(-11.93 44.38) rotate(-49.35)"/></g></g></g></g><text class="cls-11" transform="translate(84.32 33.84)">z<tspan class="cls-12" x="7.5" y="0">t</tspan><tspan class="cls-13" x="13.02" y="0">e.icu</tspan></text><text class="cls-14" transform="translate(63.43 46.74)">一个网址导航站点</text></svg>